<svg width="193" height="194" viewBox="0 0 193 194" fill="none" xmlns="http://www.w3.org/2000/svg">
<g clip-path="url(#clip0_43_550)">
<rect width="193" height="193" transform="translate(0 0.822021)" fill="#015366"/>
<path d="M94.8414 1.61361L93.8613 2.36752V12.3568C93.8613 21.8183 93.899 22.346 94.6152 23.0622C95.6707 24.1177 97.6686 24.0423 98.6863 22.9492C99.4779 22.0822 99.5156 21.8183 99.5156 12.2437V2.36752L98.5355 1.61361C97.9701 1.16127 97.1408 0.822012 96.6885 0.822012C96.2361 0.822012 95.4068 1.16127 94.8414 1.61361Z" fill="#D9D9D9"/>
<path d="M55.1859 11.9421C53.9797 12.4322 53.5273 13.1484 53.5273 14.5054C53.5273 14.9578 55.6006 18.9535 58.1639 23.4015C61.858 29.8474 62.9889 31.5437 63.8559 31.9207C65.8914 32.7877 67.8516 31.5437 67.8516 29.3951C67.8516 28.905 65.7406 24.8716 63.1773 20.4236C58.0508 11.5275 57.4854 10.9621 55.1859 11.9421Z" fill="#D9D9D9"/>
<path d="M135.062 12.5828C134.61 13.0729 132.273 16.8424 129.898 20.9889C125.186 29.0934 124.847 30.1865 126.392 31.6567C127.599 32.8252 129.182 32.7121 130.313 31.4305C131.783 29.8096 139.85 15.4854 139.85 14.5053C139.85 13.2613 138.229 11.7535 136.909 11.7535C136.268 11.7535 135.515 12.0928 135.062 12.5828Z" fill="#D9D9D9"/>
<path d="M93.2958 32.3353C64.2704 36.8211 46.1013 57.1765 47.2322 83.9402C47.7976 96.6812 52.1326 109.271 60.124 121.259C67.3238 132.115 69.3593 139.013 69.3593 152.583C69.3593 156.579 69.5478 160.311 69.7363 160.839C69.9624 161.404 70.6033 162.045 71.1687 162.233C72.1865 162.61 72.2242 162.723 72.0734 164.759C71.9603 166.455 72.1111 167.247 72.865 168.679L73.8074 170.489L72.9027 172.072C71.7341 174.145 71.6964 177.085 72.7896 179.422C73.6566 181.156 76.0691 183.192 77.69 183.531C78.4439 183.682 78.8585 184.21 79.6878 186.094C80.8941 188.884 83.4574 191.523 86.2091 192.804C87.9431 193.596 88.4708 193.634 98.7617 193.634H109.505L111.616 192.653C114.443 191.334 116.705 188.997 118.024 186.094C118.891 184.172 119.306 183.682 120.173 183.456C121.68 183.154 123.904 181.194 124.847 179.385C125.94 177.236 125.902 174.183 124.809 172.034L123.98 170.413L124.847 168.642C125.45 167.36 125.676 166.267 125.638 164.721C125.563 162.648 125.601 162.535 126.468 162.535C126.995 162.535 127.674 162.12 128.126 161.555C128.88 160.575 128.918 160.122 128.918 149.342C128.918 140.822 129.031 138.033 129.408 137.731C129.672 137.505 132.499 137.279 135.892 137.204C142.827 137.053 144.335 136.601 146.974 133.886C149.613 131.172 150.027 129.363 150.027 120.919V113.644L152.553 113.38C155.682 113.041 157.34 112.287 158.32 110.704C159.677 108.518 159.413 107.537 153.872 94.9849L148.633 83.1863V77.7205C148.595 68.5605 146.936 61.5115 143.167 54.274C136.796 42.0984 125.412 34.3709 110.56 32.1468C106.866 31.5814 97.4423 31.6945 93.2958 32.3353ZM108.751 37.8011C122.585 39.4974 132.725 46.3957 138.455 57.9681C141.508 64.0748 142.564 69.1636 142.714 77.9089L142.79 84.6941L147.879 96.0027C150.668 102.222 152.93 107.349 152.892 107.387C152.854 107.424 151.347 107.651 149.5 107.877C147.652 108.103 145.843 108.442 145.504 108.631C144.26 109.309 143.996 111.156 143.996 119.638C143.996 131.248 143.996 131.248 135.439 131.248C129.747 131.248 127.862 131.587 125.978 132.982C123.565 134.829 123.49 135.281 123.264 146.514L123.075 156.692L99.2517 156.805L75.3906 156.881V152.546C75.3906 142.104 73.4681 133.321 69.3593 125.217C68.7562 124.01 66.796 120.806 65.062 118.168C56.8822 105.728 53.0372 94.0048 53.0372 81.49C53.0372 74.3656 54.3943 68.4097 57.4099 62.4539C61.4056 54.4625 69.4347 46.8857 78.2177 42.8146C87.5285 38.5173 99.1009 36.6326 108.751 37.8011ZM119.079 163.44C120.022 164.307 120.097 165.437 119.268 166.606L118.702 167.435H98.9124C79.6501 167.435 79.1224 167.398 78.4062 166.681C77.1999 165.475 77.6523 163.59 79.2732 162.912C79.7255 162.723 88.6216 162.61 99.1763 162.648C117.383 162.723 118.326 162.761 119.079 163.44ZM119.193 174.107C120.022 174.861 120.06 176.407 119.23 177.311C118.665 177.952 117.534 177.99 98.724 177.99H78.8208L78.2554 177.161C77.9161 176.708 77.6523 176.068 77.6523 175.728C77.6523 175.389 77.9161 174.748 78.2554 174.296L78.8208 173.467H98.6486C116.592 173.467 118.552 173.542 119.193 174.107ZM112.332 184.285C112.294 184.888 110.975 186.245 109.693 186.999C108.449 187.753 107.846 187.791 98.837 187.791C92.5419 187.791 88.9986 187.64 88.4708 187.376C87.4531 186.848 85.1913 184.737 85.1913 184.323C85.1913 184.172 91.298 184.021 98.7617 184.021C106.225 184.021 112.332 184.134 112.332 184.285Z" fill="#D9D9D9"/>
<path d="M97.0655 45.5288C96.6508 45.6042 95.3315 45.7549 94.0875 45.868C92.4666 46.0565 91.6373 46.3581 90.9588 47.0366C90.1295 47.9036 90.0541 48.1297 90.318 50.5422C90.5442 53.0301 90.5065 53.1055 89.5264 53.8971C87.6416 55.4049 86.1338 54.7641 83.9475 51.56C82.3266 49.2229 78.5947 51.07 72.9028 57.1012C68.0778 62.1901 67.6254 64.1879 70.8672 65.9973C72.9781 67.1659 73.3928 68.8999 71.9227 70.7469C71.1311 71.727 71.0557 71.7647 68.3793 71.5008C65.9668 71.2747 65.5522 71.3501 64.9114 71.9909C62.6496 74.2526 62.4235 87.7852 64.5721 90.0846C65.326 90.9139 65.5899 90.9516 67.927 90.7254C70.3018 90.4616 70.528 90.537 71.3949 91.4417C73.1289 93.1379 72.4881 94.8342 69.2086 97.0583C67.6254 98.1514 67.8516 99.9231 70.0002 102.901C73.242 107.424 78.9717 112.4 80.9696 112.4C81.4219 112.4 82.1758 112.023 82.5528 111.533C85.7946 107.839 86.4731 107.575 88.3955 109.083C89.3756 109.875 89.4133 109.95 89.1494 112.664C88.8479 116.094 89.2248 116.66 92.3158 117.376C95.0299 117.979 104.114 117.979 106.188 117.376C108.261 116.773 108.713 115.906 108.374 113.154C108.072 110.591 108.449 109.686 110.07 109.008C111.616 108.367 112.784 108.895 114.028 110.892C115.348 113.003 116.516 113.38 118.514 112.438C121.869 110.779 128.126 104.673 129.597 101.582C130.35 99.9985 129.71 98.4153 127.976 97.4729C125.563 96.1913 125.299 93.2887 127.486 92.0825C128.353 91.5924 128.767 91.5924 130.426 92.0071C132.235 92.4594 132.461 92.4594 133.404 91.7809C135.213 90.4239 136.193 83.1864 135.364 77.3059C134.723 72.9333 134.12 72.3301 130.803 72.6694C127.749 72.9709 126.505 72.217 126.505 70.0684C126.505 68.5229 127.109 67.6936 128.73 67.0151C130.426 66.2989 131.104 64.5272 130.35 62.8686C129.446 61.0592 125.488 56.2342 123.414 54.5379C118.966 50.8438 117.383 50.3915 115.875 52.3139C113.991 54.6887 113.501 55.1034 112.332 55.1034C110.937 55.1034 109.316 53.6333 109.316 52.427C109.316 51.937 109.505 51.0323 109.769 50.3538C110.372 48.6952 109.731 47.3381 108.072 46.6219C106.075 45.7926 99.5533 45.1518 97.0655 45.5288ZM103.624 53.5956C104.831 59.7399 111.163 62.6801 116.705 59.6645C119.193 58.3075 119.419 58.3829 121.869 61.1723L123.603 63.1325L122.547 64.4895C118.439 69.7292 121.53 77.7206 127.976 78.7006L129.672 78.9268V82.2817V85.5989L128.013 85.8251C127.109 85.9758 125.488 86.579 124.432 87.1821C119.833 89.8208 118.853 95.8897 122.321 100.564C122.887 101.318 122.811 101.469 120.399 103.693L117.911 106.067L116.893 105.087C116.365 104.56 115.159 103.881 114.255 103.542C108.977 101.695 103.738 104.597 102.456 110.139L102.041 112.023H98.7617H95.4822L95.2561 110.327C94.8037 107.085 92.7682 104.333 90.0164 103.203C87.1893 101.996 82.8166 102.637 80.7811 104.56L79.9518 105.351L77.6524 103.014C75.2399 100.564 75.0137 99.9985 76.0315 99.1692C77.8031 97.6614 78.6324 92.6856 77.5393 90.0469C76.333 87.2198 73.6567 85.1465 70.528 84.6565L68.9447 84.3926L69.0578 81.1885L69.1709 77.9467L71.0557 77.5321C73.4305 77.0043 74.9383 76.2127 76.1822 74.818C79.1602 71.6139 79.4617 67.3167 77.0115 63.6602L76.0315 62.2278L78.2178 60.0038C79.4617 58.7598 80.5926 57.742 80.7434 57.742C80.8942 57.742 81.7988 58.2698 82.7412 58.9483C84.1737 59.9661 84.8899 60.1922 87.0008 60.3053C88.6971 60.4184 90.0164 60.2676 90.8457 59.9284C93.786 58.6844 95.8592 56.0458 96.3492 52.8793L96.6131 51.3338H99.8926H103.172L103.624 53.5956Z" fill="#D9D9D9"/>
<path d="M94.7282 63.9617C91.5241 64.8287 88.9608 66.3365 86.473 68.8244C79.1978 76.0996 79.1978 87.4836 86.4353 94.7588C93.9366 102.222 106.075 101.883 113.161 93.9672C116.742 90.0092 118.439 84.3926 117.647 79.2283C116.516 71.7647 110.786 65.4695 103.662 63.811C101.287 63.2455 97.0653 63.3586 94.7282 63.9617ZM105.057 70.5584C107.62 71.8401 109.542 73.8002 110.9 76.552C112.106 79.0022 112.143 84.2795 110.937 86.8428C109.806 89.3307 107.318 91.8563 104.831 93.0625C103.021 93.9672 102.267 94.118 99.5155 94.118C95.6706 94.118 93.1073 93.1002 90.5817 90.5746C85.4175 85.3727 85.6437 77.4567 91.0718 72.4809C95.0298 68.8621 100.194 68.1836 105.057 70.5584Z" fill="#D9D9D9"/>
<path d="M25.8213 41.156C24.8035 41.533 24.2381 42.2492 23.9365 43.4554C23.748 44.247 23.9365 44.6994 24.7658 45.6041C26.0475 46.9611 40.7486 55.4802 41.8041 55.4802C42.2188 55.4802 43.0104 55.0656 43.5758 54.6132C44.8197 53.5201 44.9705 51.6353 43.8773 50.5798C43.048 49.7505 28.46 41.3445 27.3291 41.0429C26.9145 40.9298 26.2359 40.9675 25.8213 41.156Z" fill="#D9D9D9"/>
<path d="M157.378 45.9809C148.67 51.0321 148.105 51.5221 148.67 53.7084C148.972 54.9147 150.857 56.0079 151.987 55.6309C153.382 55.2163 168.196 46.4709 168.724 45.7924C169.252 45.0762 169.403 43.8323 169.026 42.8522C168.762 42.2114 166.99 41.1559 166.161 41.1559C165.897 41.1559 161.939 43.3422 157.378 45.9809Z" fill="#D9D9D9"/>
<path d="M15.0781 81.3769C12.9671 82.1685 12.4394 84.9957 14.1734 86.3527C15.1158 87.1066 15.6435 87.1443 24.3511 87.1443C30.3447 87.1443 33.8503 86.9935 34.4535 86.7296C36.5267 85.7496 36.5267 82.5078 34.4535 81.5277C33.4734 81.113 16.2089 80.9623 15.0781 81.3769Z" fill="#D9D9D9"/>
<path d="M158.32 81.98C156.322 82.9978 156.511 86.2396 158.66 87.1443C159.376 87.4081 162.655 87.5212 168.95 87.4458C177.432 87.3327 178.299 87.2573 179.015 86.6165C180.221 85.5234 180.108 83.2993 178.827 82.2816C177.884 81.5277 177.356 81.49 168.536 81.49C161.864 81.49 158.999 81.6407 158.32 81.98Z" fill="#D9D9D9"/>
<path d="M32.7949 117.451C28.3469 120.052 24.5019 122.465 24.2381 122.804C23.5972 123.671 23.6349 125.216 24.2758 126.046C24.9166 126.913 26.5752 127.516 27.4045 127.214C28.9123 126.649 43.5758 117.979 44.0281 117.414C45.1967 115.83 44.1035 113.305 42.0302 112.965C41.0879 112.815 39.5424 113.569 32.7949 117.451Z" fill="#D9D9D9"/>
</g>
<defs>
<clipPath id="clip0_43_550">
<rect width="193" height="193" fill="white" transform="translate(0 0.822021)"/>
</clipPath>
</defs>
</svg>
