<svg width="199" height="200" viewBox="0 0 199 200" fill="none" xmlns="http://www.w3.org/2000/svg">
<rect width="199" height="199" transform="translate(0 0.822021)" fill="#015366"/>
<path d="M70.2719 11.8603C64.4418 13.9591 60.6717 18.7787 60.3219 24.5699L60.1664 27.5238L52.8982 27.757C47.0293 27.9125 45.2025 28.1068 43.1426 28.7287C35.991 31.0218 30.1609 36.9296 27.8678 44.1589L27.0127 46.8796V108.29C27.0127 158.623 27.0904 170.089 27.5568 171.838C29.5391 179.922 36.1854 186.646 44.1531 188.706C46.2908 189.25 52.4318 189.328 99.5 189.328C146.568 189.328 152.709 189.25 154.847 188.706C162.815 186.646 169.461 179.922 171.443 171.838C171.91 170.089 171.987 158.623 171.987 108.29V46.8796L171.132 44.1589C168.839 36.9296 163.009 31.0607 155.857 28.7675C153.797 28.1068 151.971 27.9125 146.102 27.757L138.834 27.5238L138.678 24.7642C138.445 19.556 135.219 14.8531 130.283 12.5599L128.067 11.5105L99.8887 11.4328C77.4234 11.355 71.4379 11.4328 70.2719 11.8603ZM125.852 24.2201C126.202 24.5699 126.318 27.2517 126.318 33.898C126.318 41.788 126.241 43.2261 125.696 43.7314C125.152 44.2755 122.237 44.3533 99.5 44.3533C76.7627 44.3533 73.8477 44.2755 73.3035 43.7314C72.7594 43.2261 72.6816 41.788 72.6816 33.898C72.6816 27.2517 72.7982 24.5699 73.148 24.2201C73.8088 23.5593 125.191 23.5593 125.852 24.2201ZM60.283 43.1873C60.7883 49.5226 64.5195 54.2255 70.4273 56.0912C72.6039 56.7519 74.5861 56.7908 99.5 56.7908C124.414 56.7908 126.396 56.7519 128.573 56.0912C134.48 54.2255 138.212 49.5226 138.717 43.1873L138.95 40.2722H145.363C152.554 40.3111 153.487 40.5443 156.168 42.9541C157.023 43.7314 158.151 45.2084 158.656 46.2189L159.55 48.0457L159.666 107.668C159.783 173.159 159.9 169.506 157.451 172.887C156.79 173.781 155.43 174.986 154.419 175.608L152.554 176.696H99.5H46.4463L44.5807 175.608C43.5701 174.986 42.2098 173.781 41.549 172.926C39.1393 169.544 39.2559 173.081 39.2559 108.834C39.2559 68.6064 39.3725 49.6003 39.6834 48.2789C40.4219 44.7808 43.4924 41.5548 46.9516 40.622C48.1176 40.3111 50.8383 40.1556 54.4141 40.1945L60.0498 40.2722L60.283 43.1873Z" fill="white"/>
<path d="M63.7422 78.2455C61.177 79.5669 60.1276 81.316 60.3219 84.0367C60.5162 86.563 61.5657 88.2732 63.509 89.206C64.7139 89.7501 68.3285 89.8279 99.5 89.8279C130.672 89.8279 134.286 89.7501 135.491 89.206C137.434 88.2732 138.484 86.563 138.678 84.0367C138.872 81.316 137.823 79.5669 135.258 78.2455L133.548 77.3904H99.5H65.4524L63.7422 78.2455Z" fill="white"/>
<path d="M63.4313 111.477C61.5268 112.41 60.5162 114.12 60.3219 116.607C60.1276 119.328 61.177 121.077 63.7422 122.36L65.4524 123.254H99.5H133.548L135.258 122.36C137.823 121.077 138.872 119.328 138.678 116.607C138.484 114.081 137.434 112.371 135.491 111.438C134.286 110.894 130.672 110.816 99.4223 110.816C68.2508 110.816 64.5973 110.894 63.4313 111.477Z" fill="white"/>
<path d="M64.1308 144.281C63.5867 144.514 62.7316 145.058 62.2652 145.525C59.2336 148.323 59.6222 152.715 63.0814 155.28C64.1697 156.096 64.2863 156.096 99.5 156.096C134.714 156.096 134.83 156.096 135.919 155.28C139.728 152.443 139.728 147.701 135.919 144.864C134.83 144.048 134.675 144.048 99.9664 143.97C77.3457 143.931 64.7527 144.048 64.1308 144.281Z" fill="white"/>
</svg>
