<svg width="197" height="200" viewBox="0 0 197 200" fill="none" xmlns="http://www.w3.org/2000/svg">
<rect width="196.424" height="199.658" transform="translate(0 0.000488281)" fill="#015366"/>
<path d="M154.275 182.813C153.184 182.813 152.161 182.639 151.206 182.293C150.251 181.946 149.364 181.357 148.546 180.525L106.806 138.097C105.987 137.266 105.408 136.364 105.067 135.394C104.726 134.423 104.555 133.383 104.555 132.274C104.555 131.165 104.726 130.125 105.067 129.154C105.408 128.184 105.987 127.283 106.806 126.451L124.197 108.773C125.016 107.941 125.903 107.351 126.857 107.005C127.812 106.658 128.835 106.485 129.927 106.485C131.018 106.485 132.041 106.658 132.996 107.005C133.95 107.351 134.837 107.941 135.656 108.773L177.396 151.2C178.214 152.032 178.794 152.933 179.135 153.904C179.476 154.874 179.646 155.914 179.646 157.023C179.646 158.133 179.476 159.173 179.135 160.143C178.794 161.114 178.214 162.015 177.396 162.847L160.004 180.525C159.186 181.357 158.299 181.946 157.344 182.293C156.389 182.639 155.366 182.813 154.275 182.813ZM154.275 163.055L160.209 157.023L130.131 126.451L124.197 132.482L154.275 163.055ZM41.9447 183.021C40.8535 183.021 39.7964 182.813 38.7733 182.397C37.7503 181.981 36.8295 181.357 36.0111 180.525L18.824 163.055C18.0055 162.223 17.3917 161.287 16.9825 160.247C16.5733 159.207 16.3687 158.133 16.3687 157.023C16.3687 155.914 16.5733 154.874 16.9825 153.904C17.3917 152.933 18.0055 152.032 18.824 151.2L62.201 107.109H79.5928L86.5495 100.038L52.789 65.7214H41.1263L16.3687 40.5561L39.4894 17.0546L64.2471 42.2199V54.0746L98.0076 88.3909L121.742 64.2655L112.944 55.3225L124.402 43.6757H101.281L95.5522 37.8524L124.607 8.31958L130.336 14.1429V37.6444L141.794 25.9977L170.848 55.5305C173.167 57.8875 174.94 60.5566 176.168 63.5376C177.396 66.5186 178.01 69.6729 178.01 73.0006C178.01 76.3282 177.396 79.5172 176.168 82.5675C174.94 85.6179 173.167 88.3216 170.848 90.6786L153.457 73.0006L141.998 84.6473L133.405 75.9122L91.0509 118.964V136.434L47.6738 180.525C46.8554 181.357 45.9687 181.981 45.0139 182.397C44.059 182.813 43.036 183.021 41.9447 183.021ZM41.9447 163.055L76.7282 127.699V121.667H70.7946L36.0111 157.023L41.9447 163.055ZM41.9447 163.055L36.0111 157.023L39.0802 159.935L41.9447 163.055Z" fill="#E8EAED"/>
</svg>
